<svg width="34" height="34" viewBox="0 0 34 34" fill="none" xmlns="http://www.w3.org/2000/svg">
<path d="M0.0695801 12.3474C0.0695801 6.5595 0.0695801 3.66558 1.86764 1.86752C3.6657 0.069458 6.55963 0.069458 12.3475 0.069458H21.5559C27.3438 0.069458 30.2377 0.069458 32.0358 1.86752C33.8338 3.66558 33.8338 6.55951 33.8338 12.3474V21.5558C33.8338 27.3437 33.8338 30.2376 32.0358 32.0357C30.2377 33.8337 27.3438 33.8337 21.5559 33.8337H12.3475C6.55963 33.8337 3.6657 33.8337 1.86764 32.0357C0.0695801 30.2376 0.0695801 27.3437 0.0695801 21.5558V12.3474Z" fill="white"/>
<path fill-rule="evenodd" clip-rule="evenodd" d="M8.25093 8.00073C7.23911 9.02629 7.23911 10.689 8.25093 11.7146L11.5857 15.0947C12.5975 16.1202 14.238 16.1202 15.2498 15.0947C16.2616 14.0691 16.2617 12.4063 15.2498 11.3808L11.915 8.00073C10.9032 6.97518 9.26275 6.97518 8.25093 8.00073ZM18.9139 18.8085C17.9021 19.8341 17.9021 21.4968 18.9139 22.5224L22.2487 25.9024C23.2605 26.928 24.901 26.928 25.9128 25.9024C26.9246 24.8769 26.9246 23.2141 25.9128 22.1886L22.578 18.8085C21.5662 17.783 19.9257 17.783 18.9139 18.8085ZM22.2487 8.00073C23.2605 6.97518 24.901 6.97518 25.9128 8.00073C26.9246 9.02629 26.9246 10.689 25.9128 11.7146L22.578 15.0947C21.5662 16.1202 19.9257 16.1202 18.9139 15.0947C17.9021 14.0691 17.9021 12.4063 18.9139 11.3808L22.2487 8.00073ZM14.9895 18.8085C13.9776 17.783 12.3372 17.783 11.3253 18.8085L7.99055 22.1886C6.97873 23.2141 6.97874 24.8769 7.99055 25.9024C9.00237 26.928 10.6429 26.928 11.6547 25.9024L14.9895 22.5224C16.0013 21.4968 16.0013 19.8341 14.9895 18.8085Z" fill="url(#paint0_linear_481_1573)"/>
<defs>
<linearGradient id="paint0_linear_481_1573" x1="6.60861" y1="26.6716" x2="28.5173" y2="25.1792" gradientUnits="userSpaceOnUse">
<stop stop-color="#97D7FF"/>
<stop offset="0.5" stop-color="#FF8CE2"/>
<stop offset="1" stop-color="#FFC80E"/>
</linearGradient>
</defs>
</svg>
