<svg width="32" height="32" viewBox="0 0 32 32" fill="none" xmlns="http://www.w3.org/2000/svg">
<path d="M29.3332 15.9998C29.3332 23.3636 23.3636 29.3332 15.9998 29.3332C8.63604 29.3332 2.6665 23.3636 2.6665 15.9998C2.6665 8.63604 8.63604 2.6665 15.9998 2.6665C23.3636 2.6665 29.3332 8.63604 29.3332 15.9998ZM7.33317 15.9998C7.33317 20.7863 11.2134 24.6665 15.9998 24.6665C20.7863 24.6665 24.6665 20.7863 24.6665 15.9998C24.6665 11.2134 20.7863 7.33317 15.9998 7.33317C11.2134 7.33317 7.33317 11.2134 7.33317 15.9998Z" fill="url(#paint0_angular_368_7933)"/>
<path d="M15.9998 2.66659C17.7508 2.66659 19.4846 3.01146 21.1023 3.68153C22.72 4.35159 24.1898 5.33371 25.4279 6.57183C26.666 7.80994 27.6482 9.2798 28.3182 10.8975C28.9883 12.5151 29.3332 14.249 29.3332 15.9999L24.6665 15.9999C24.6665 14.8618 24.4423 13.7348 24.0068 12.6833C23.5712 11.6318 22.9329 10.6764 22.1281 9.87166C21.3233 9.06689 20.3679 8.42851 19.3164 7.99296C18.2649 7.55742 17.138 7.33326 15.9998 7.33326L15.9998 2.66659Z" fill="url(#paint1_linear_368_7933)"/>
<defs>
<radialGradient id="paint0_angular_368_7933" cx="0" cy="0" r="1" gradientUnits="userSpaceOnUse" gradientTransform="translate(15.8388 15.9998) rotate(-29.7557) scale(14.7759 15.9175)">
<stop stop-color="#97D7FF"/>
<stop offset="0.5" stop-color="#FF8CE2"/>
<stop offset="1" stop-color="#FFC80E" stop-opacity="0"/>
</radialGradient>
<linearGradient id="paint1_linear_368_7933" x1="27.9998" y1="15.9999" x2="27.0283" y2="2.5374" gradientUnits="userSpaceOnUse">
<stop stop-color="#97D7FF"/>
<stop offset="0.5" stop-color="#FF8CE2"/>
<stop offset="1" stop-color="#FFC80E"/>
</linearGradient>
</defs>
</svg>
