<svg width="21" height="12" viewBox="0 0 21 12" fill="none" xmlns="http://www.w3.org/2000/svg">
<path fill-rule="evenodd" clip-rule="evenodd" d="M20.497 0.311445C20.5154 0.133691 20.366 -0.0161825 20.1882 0.0015993L16.6816 0.352259C16.4422 0.376197 16.3407 0.669476 16.514 0.836346L17.7013 1.97976L12.3608 7.05976L9.08355 3.90853C8.75356 3.59124 8.23113 3.59372 7.90417 3.91414L0.669365 11.0043C0.446732 11.2224 0.443123 11.5798 0.661303 11.8024C0.879483 12.025 1.23683 12.0287 1.45947 11.8105L8.49862 4.91211L11.773 8.06052C12.0994 8.37443 12.6151 8.37582 12.9433 8.06368L18.5152 2.76352L19.6699 3.87537C19.8392 4.03848 20.1221 3.93503 20.1463 3.70113L20.497 0.311445Z" fill="#659123"/>
</svg>
