<svg width="24" height="24" viewBox="0 0 24 24" fill="none" xmlns="http://www.w3.org/2000/svg">
<path d="M12.0277 22.9709C11.6817 22.9709 11.3892 22.7203 11.3055 22.3846C11.0384 21.3146 10.527 20.1768 9.77148 18.9711C8.8763 17.5236 7.60019 16.1808 5.94315 14.9428C4.50195 13.8535 3.06075 13.1108 1.61955 12.7145C1.27822 12.6206 1.02917 12.318 1.02917 11.964C1.02917 11.6169 1.26864 11.3177 1.60237 11.2224C3.01537 10.819 4.37659 10.164 5.68602 9.25747C7.19069 8.20992 8.44775 6.95285 9.45721 5.48628C10.3502 4.17983 10.9633 2.88773 11.2963 1.61C11.3835 1.27527 11.6782 1.02942 12.0241 1.02942C12.3739 1.02942 12.6707 1.28071 12.7558 1.62001C12.948 2.386 13.2483 3.17003 13.6569 3.97209C14.1712 4.9625 14.8283 5.91482 15.6283 6.82905C16.4472 7.72423 17.3615 8.5337 18.3709 9.25747C19.69 10.1925 21.0311 10.8494 22.394 11.2282C22.7284 11.3212 22.9706 11.6189 22.9706 11.9659C22.9706 12.318 22.7211 12.6183 22.3815 12.7114C21.5174 12.9483 20.6282 13.3302 19.7137 13.8572C18.609 14.5048 17.5805 15.2761 16.6282 16.1713C15.6759 17.0475 14.895 17.9712 14.2855 18.9426C13.5285 20.1506 13.0166 21.2973 12.7499 22.3827C12.6672 22.7194 12.3744 22.9709 12.0277 22.9709Z" fill="white"/>
<path d="M12.0304 24C11.652 24 11.332 23.7259 11.2404 23.3587C10.9482 22.1883 10.3889 20.9438 9.5625 19.625C8.58333 18.0417 7.1875 16.5729 5.375 15.2188C3.79859 14.0273 2.22218 13.2148 0.645765 12.7814C0.272406 12.6787 0 12.3476 0 11.9604C0 11.5808 0.261928 11.2535 0.626967 11.1493C2.17254 10.708 3.66147 9.99158 5.09375 9C6.73958 7.85417 8.11458 6.47917 9.21875 4.875C10.1955 3.44598 10.8661 2.03266 11.2304 0.635048C11.3258 0.268913 11.6481 0 12.0265 0C12.4091 0 12.7337 0.27487 12.8268 0.645996C13.037 1.48385 13.3656 2.34144 13.8125 3.21875C14.375 4.30208 15.0938 5.34375 15.9687 6.34375C16.8646 7.32292 17.8646 8.20833 18.9688 9C20.4116 10.0228 21.8784 10.7413 23.3693 11.1557C23.735 11.2573 24 11.5829 24 11.9625C24 12.3477 23.727 12.6761 23.3555 12.778C22.4104 13.0371 21.4378 13.4548 20.4375 14.0313C19.2292 14.7396 18.1042 15.5833 17.0625 16.5625C16.0208 17.5208 15.1667 18.5313 14.5 19.5938C13.6719 20.9151 13.1121 22.1694 12.8204 23.3567C12.7299 23.7249 12.4096 24 12.0304 24Z" fill="white" fill-opacity="0.3"/>
<path d="M12.0247 21.7661C11.7167 21.7661 11.4563 21.543 11.3817 21.2442C11.144 20.2917 10.6888 19.2789 10.0162 18.2056C9.21936 16.9171 8.08339 15.7217 6.60833 14.6197C5.3254 13.65 4.04248 12.9888 2.75955 12.6361C2.4557 12.5525 2.23401 12.2831 2.23401 11.968C2.23401 11.659 2.44717 11.3927 2.74425 11.3079C4.00208 10.9487 5.21381 10.3657 6.37944 9.5587C7.71887 8.62619 8.83788 7.50717 9.73648 6.20166C10.5314 5.03868 11.0771 3.88849 11.3736 2.75107C11.4512 2.4531 11.7136 2.23425 12.0215 2.23425C12.3329 2.23425 12.597 2.45795 12.6728 2.75998C12.8439 3.44185 13.1113 4.13978 13.475 4.85376C13.9328 5.7354 14.5177 6.58314 15.2298 7.39697C15.9589 8.19384 16.7727 8.91442 17.6713 9.5587C18.8455 10.3911 20.0393 10.9758 21.2526 11.313C21.5502 11.3958 21.7659 11.6608 21.7659 11.9696C21.7659 12.2832 21.5437 12.5504 21.2414 12.6333C20.4722 12.8442 19.6807 13.1842 18.8666 13.6533C17.8832 14.2297 16.9677 14.9164 16.1199 15.7133C15.2722 16.4932 14.5771 17.3155 14.0345 18.1802C13.3606 19.2555 12.905 20.2763 12.6676 21.2426C12.594 21.5422 12.3333 21.7661 12.0247 21.7661Z" fill="url(#paint0_radial_416_8416)"/>
<path d="M12.0072 14.7362C11.9209 14.7362 11.8479 14.6737 11.827 14.59C11.7604 14.3231 11.6329 14.0393 11.4444 13.7386C11.2211 13.3775 10.9028 13.0426 10.4895 12.7338C10.13 12.4621 9.77054 12.2768 9.41105 12.178C9.32591 12.1545 9.26379 12.0791 9.26379 11.9908C9.26379 11.9042 9.32352 11.8296 9.40677 11.8058C9.75922 11.7052 10.0988 11.5418 10.4254 11.3157C10.8007 11.0544 11.1142 10.7408 11.366 10.375C11.5888 10.0491 11.7417 9.72683 11.8248 9.40812C11.8465 9.32463 11.92 9.26331 12.0063 9.26331C12.0936 9.26331 12.1676 9.32599 12.1888 9.41062C12.2367 9.60168 12.3117 9.79724 12.4136 9.99731C12.5419 10.2443 12.7058 10.4819 12.9053 10.7099C13.1096 10.9332 13.3376 11.1351 13.5894 11.3157C13.9184 11.5489 14.2529 11.7127 14.5929 11.8072C14.6763 11.8304 14.7367 11.9047 14.7367 11.9912C14.7367 12.0791 14.6745 12.154 14.5898 12.1772C14.3742 12.2363 14.1524 12.3315 13.9243 12.463C13.6488 12.6245 13.3922 12.8169 13.1547 13.0402C12.9172 13.2587 12.7224 13.4892 12.5704 13.7314C12.3815 14.0328 12.2539 14.3188 12.1873 14.5895C12.1667 14.6735 12.0937 14.7362 12.0072 14.7362Z" fill="url(#paint1_radial_416_8416)"/>
<defs>
<radialGradient id="paint0_radial_416_8416" cx="0" cy="0" r="1" gradientUnits="userSpaceOnUse" gradientTransform="translate(12.1275 1.09032) rotate(90.3535) scale(20.6762)">
<stop stop-color="#FFDF6B"/>
<stop offset="0.520833" stop-color="#F3ACFF"/>
<stop offset="1" stop-color="#6129FF"/>
</radialGradient>
<radialGradient id="paint1_radial_416_8416" cx="0" cy="0" r="1" gradientUnits="userSpaceOnUse" gradientTransform="translate(12.036 8.94277) rotate(90.3535) scale(5.79359)">
<stop stop-color="#FFFEFC"/>
<stop offset="0.520833" stop-color="#F7CBFF"/>
<stop offset="1" stop-color="#997AF0"/>
</radialGradient>
</defs>
</svg>
