<svg width="24" height="24" viewBox="0 0 24 24" fill="none" xmlns="http://www.w3.org/2000/svg">
<path d="M12.0002 20.9998C9.6133 20.9998 7.32411 20.0516 5.63628 18.3638C3.94846 16.676 3.00024 14.3868 3.00024 11.9998C3.00024 9.6129 3.94846 7.32371 5.63628 5.63589C7.32411 3.94806 9.6133 2.99985 12.0002 2.99985C14.3872 2.99985 16.6764 3.94806 18.3642 5.63589C20.052 7.32371 21.0002 9.6129 21.0002 11.9998C21.0002 14.3868 20.052 16.676 18.3642 18.3638C16.6764 20.0516 14.3872 20.9998 12.0002 20.9998V20.9998Z" stroke="#484848" stroke-width="1.55556" stroke-linecap="round" stroke-linejoin="round"/>
<path d="M12.0002 13.2499V12.9999C12.0002 12.1829 12.5052 11.7399 13.0112 11.3999C13.5052 11.0669 14.0002 10.6329 14.0002 9.83286C14.0002 9.30242 13.7895 8.79371 13.4145 8.41864C13.0394 8.04357 12.5307 7.83286 12.0002 7.83286C11.4698 7.83286 10.9611 8.04357 10.586 8.41864C10.211 8.79371 10.0002 9.30242 10.0002 9.83286" stroke="#484848" stroke-width="1.55556" stroke-linecap="round" stroke-linejoin="round"/>
<path d="M11.9994 16C11.8614 16 11.7494 16.112 11.7504 16.25C11.7504 16.388 11.8624 16.5 12.0004 16.5C12.1384 16.5 12.2504 16.388 12.2504 16.25C12.2504 16.112 12.1384 16 11.9994 16" stroke="#484848" stroke-width="1.55556" stroke-linecap="round" stroke-linejoin="round"/>
</svg>
