<svg width="20" height="12" viewBox="0 0 20 12" fill="none" xmlns="http://www.w3.org/2000/svg">
<path fill-rule="evenodd" clip-rule="evenodd" d="M19.997 11.6602C20.0154 11.838 19.866 11.9879 19.6882 11.9701L16.1816 11.6194C15.9422 11.5955 15.8407 11.3022 16.014 11.1353L17.2013 9.99192L11.8608 4.91192L8.58355 8.06315C8.25356 8.38044 7.73113 8.37796 7.40417 8.05754L0.169365 0.967428C-0.0532678 0.749249 -0.0568774 0.391899 0.161303 0.169266C0.379483 -0.0533657 0.736832 -0.0569763 0.959465 0.161203L7.99862 7.05957L11.273 3.91116C11.5994 3.59725 12.1151 3.59586 12.4433 3.908L18.0152 9.20816L19.1699 8.09631C19.3392 7.9332 19.6221 8.03665 19.6463 8.27055L19.997 11.6602Z" fill="#9C4721"/>
</svg>
